v -0.266700 -0.000000 0.500000
v -0.166700 1.000000 0.500000
v -0.166700 1.000000 -0.500000
v -0.266700 0.000000 -0.500000

v 0.500000 -0.000000 0.266700
v 0.500000 1.000000 0.166700
v -0.500000 1.000000 0.166700
v -0.500000 -0.000000 0.266700

v 0.266700 0.000000 -0.500000
v 0.166700 1.000000 -0.500000
v 0.166700 1.000000 0.500000
v 0.266700 -0.000000 0.500000

v -0.500000 0.000000 -0.266700
v -0.500000 1.000000 -0.166700
v 0.500000 1.000000 -0.166700
v 0.500000 0.000000 -0.266700

vt 1.0000 0.0000
vt 1.0000 1.0000
vt 0.0000 1.0000
vt 0.0000 0.0000

vn 0.0000 1.0000 0.0000

f 1/1/1 2/2/1 3/3/1 4/4/1
f 5/1/1 6/2/1 7/3/1 8/4/1
f 9/1/1 10/2/1 11/3/1 12/4/1
f 13/1/1 14/2/1 15/3/1 16/4/1
