# Blender v2.77 (sub 0) OBJ File: ''
# www.blender.org
mtllib grass5.mtl
o Plane
v -0.250000 0.333333 0.500000
v 0.250000 -0.333333 0.500000
v -0.250000 0.333333 -0.500000
v 0.250000 -0.333333 -0.500000
v -0.250000 0.333333 0.500000
v 0.250000 -0.333333 0.500000
v -0.250000 0.333333 -0.500000
v 0.250000 -0.333333 -0.500000
v -0.250000 0.333333 0.500000
v 0.250000 -0.333333 0.500000
v -0.250000 0.333333 -0.500000
v 0.250000 -0.333333 -0.500000
v -0.250000 0.333333 0.500000
v 0.250000 -0.333333 0.500000
v -0.250000 0.333333 -0.500000
v 0.250000 -0.333333 -0.500000
v 0.558013 0.333333 -0.033494
v 0.308013 -0.333333 -0.466506
v -0.308013 0.333333 0.466506
v -0.558013 -0.333333 0.033494
v 0.558013 0.333333 -0.033494
v 0.308013 -0.333333 -0.466506
v -0.308013 0.333333 0.466506
v -0.558013 -0.333333 0.033494
v -0.308013 0.333333 -0.466506
v -0.558013 -0.333333 -0.033494
v 0.558013 0.333333 0.033494
v 0.308013 -0.333333 0.466506
v -0.308013 0.333333 -0.466506
v -0.558013 -0.333333 -0.033494
v 0.558013 0.333333 0.033494
v 0.308013 -0.333333 0.466506
vt 0.0000 0.0000
vt 0.0000 0.0000
vt 0.0000 0.0000
vt 0.0000 0.0000
vt 0.0001 0.9999
vt 0.0001 0.0001
vt 0.9999 0.0001
vt 0.9999 0.9999
vt 0.0000 0.0000
vt 0.0000 0.0000
vt 0.0000 0.0000
vt 0.0000 0.0000
vt 0.0001 0.9999
vt 0.0001 0.0001
vt 0.9999 0.0001
vt 0.9999 0.9999
vt 0.0000 0.0000
vt 0.0000 0.0000
vt 0.0000 0.0000
vt 0.0000 0.0000
vt 0.0001 0.9999
vt 0.0001 0.0001
vt 0.9999 0.0001
vt 0.9999 0.9999
vt 0.0000 0.0000
vt 0.0000 0.0000
vt 0.0000 0.0000
vt 0.0000 0.0000
vt 0.0001 0.9999
vt 0.0001 0.0001
vt 0.9999 0.0001
vt 0.9999 0.9999
vn 0.0000 1.0000 0.0000
vn 0.0000 1.0000 0.0000
vn 0.0000 1.0000 0.0000
usemtl None
s off
f 1/1/1 2/2/1 4/3/1 3/4/1
f 5/5/1 6/6/1 8/7/1 7/8/1
f 9/9/1 10/10/1 12/11/1 11/12/1
f 13/13/1 14/14/1 16/15/1 15/16/1
f 17/17/2 18/18/2 20/19/2 19/20/2
f 21/21/2 22/22/2 24/23/2 23/24/2
f 25/25/3 26/26/3 28/27/3 27/28/3
f 29/29/3 30/30/3 32/31/3 31/32/3
